<svg id="Layer_1" data-name="Layer 1" xmlns="http://www.w3.org/2000/svg" viewBox="0 0 1000 498.41"><defs><style>.cls-1{fill:#564088;}.cls-2{fill:#e25c30;}.cls-3{fill:#6c9341;}.cls-4{fill:#7866a0;}</style></defs><title>HLAAGGR_fullcolor</title><polygon class="cls-1" points="451.67 200.71 368.44 200.71 368.44 126.54 337.17 126.54 337.17 310.4 368.44 310.4 368.44 229.22 451.67 229.22 451.67 310.4 483.19 310.4 483.19 126.54 451.67 126.54 451.67 200.71"/><path class="cls-1" d="M913.72,238.54H856.86l28.54-71.23Zm-178.14,0H678.72l28.53-71.23Zm164-112h-26.8l-76,175.37-75.3-175.37h-26.8L614.9,310.4h34.66l17.79-43.6H747.2l18,43.6H827.7l17.79-43.6h79.86l18,43.6h35.12Z"/><polygon class="cls-1" points="531.35 126.54 500.08 126.54 500.08 310.4 610.53 310.4 610.53 281.89 531.35 281.89 531.35 126.54"/><path class="cls-2" d="M211.78,136.79c-55.31,55.92-84.15,144.08-70.57,225.09,9.16-20.46,20.51-49,33.54-66.95,24.86-34.53,62.6-61.6,100.93-75.31,27.28-7.89,67-9.29,105.73,3.14-44.44-32.67-78-29.78-110.71-31-16.36-.61-33.84,1.48-44.27-7.42s-12.51-27.55-14.65-47.52"/><path class="cls-2" d="M256.6,123c-13.78.6-24.54,13.11-23.84,29.14.64,14.68,12.45,26.21,26.23,25.61,15-.66,25.79-13.18,25.15-27.85-.7-16-12.5-27.55-27.54-26.9"/><path class="cls-3" d="M129.26,102C73.78,78.15,54.63,0,54.63,0,57.46,45.22,69.77,116.07,83.5,158.18c11.58,33.63,29.78,65.52,48,96.82,7.33-34.21,14.64-68.42,33.49-93.86,14.82-19.89,36.18-34.44,57.55-49-15.26-.26-31.19,0-47-.9-14-1.31-35.46-4.58-46.32-9.25"/><path class="cls-3" d="M136.67,30.82c-13.79.61-24.54,13.11-23.84,29.14.64,14.68,12.44,26.21,26.23,25.61,15-.66,25.79-13.17,25.15-27.85-.7-16-12.51-27.55-27.54-26.9"/><path class="cls-4" d="M107.52,244.8C92.33,208.2,66.9,177.66,41,147.08c12,22.15,23.94,43.78,26.85,68.29,2.38,24.5-3.75,50.85-18.12,70.55-10,14-23.5,24.19-37.55,34.35,29.62-3.69,60.34-5.14,79.79,14.07,12.31,11.55,28.91,48.3,36.86,64,3.54-28-2.74-55.74-4.49-83.39-1.88-23.95-6.91-48-16.77-70.1"/><path class="cls-4" d="M23.88,209.14C10.09,209.74-.67,222.25,0,238.28.67,253,12.48,264.49,26.27,263.89c15-.66,25.78-13.17,25.14-27.85-.69-16-12.5-27.55-27.53-26.9"/><path class="cls-1" d="M216,388.63V353.88h-9.09V367h-9.42V353.88h-9.09v34.75h9.09V374.11h9.42v14.52Zm29-10.9v-2.16a22,22,0,0,0-.63-5.42,11.36,11.36,0,0,0-2-4.27,9.78,9.78,0,0,0-3.57-2.82,12.11,12.11,0,0,0-5.25-1,11.93,11.93,0,0,0-4.91,1,11.26,11.26,0,0,0-3.86,2.78,12.32,12.32,0,0,0-2.52,4.36,17.52,17.52,0,0,0-.88,5.72,16.93,16.93,0,0,0,.94,5.89,12,12,0,0,0,2.63,4.29,10.92,10.92,0,0,0,3.94,2.63,13.26,13.26,0,0,0,4.88.88,12.17,12.17,0,0,0,6.61-1.67,11.62,11.62,0,0,0,4.14-4.51l-6.57-3.19a6,6,0,0,1-1.43,2,3.4,3.4,0,0,1-2.4.83,3.32,3.32,0,0,1-1.66-.41,3.75,3.75,0,0,1-1.25-1.13,5.8,5.8,0,0,1-.83-1.67,6.23,6.23,0,0,1-.32-2Zm-15-5a6.33,6.33,0,0,1,.22-1.6,5.55,5.55,0,0,1,.69-1.57,4.47,4.47,0,0,1,1.11-1.18,2.66,2.66,0,0,1,1.58-.46,2.58,2.58,0,0,1,2.45,1.37,7.24,7.24,0,0,1,.74,3.44Zm32,6.13a7.39,7.39,0,0,1-.23,1.79,5.38,5.38,0,0,1-.68,1.62,3.47,3.47,0,0,1-3,1.6,2.65,2.65,0,0,1-1.86-.71,2.9,2.9,0,0,1-.77-2.24,3,3,0,0,1,1.48-2.77,4.4,4.4,0,0,1,1.6-.56,11.67,11.67,0,0,1,1.89-.15H262Zm.4,6.58v3.19h7.36V374a19.61,19.61,0,0,0-.57-5,9,9,0,0,0-1.88-3.7,8.27,8.27,0,0,0-3.43-2.31,14.91,14.91,0,0,0-5.14-.78,15.07,15.07,0,0,0-5.4,1,12.35,12.35,0,0,0-4.54,2.9l3.94,4.71A7.91,7.91,0,0,1,255,369.2a6.81,6.81,0,0,1,3-.64,4,4,0,0,1,2.65.83,3.33,3.33,0,0,1,1,2.7v.39h-1.14a25.64,25.64,0,0,0-4.63.42,12.75,12.75,0,0,0-4.08,1.45,8.36,8.36,0,0,0-2.92,2.75,7.88,7.88,0,0,0-1.11,4.36,8.4,8.4,0,0,0,.74,3.71,6.85,6.85,0,0,0,1.89,2.4,7.11,7.11,0,0,0,2.51,1.31,9.82,9.82,0,0,0,2.68.39,8.12,8.12,0,0,0,4.37-1.06,5.12,5.12,0,0,0,2.26-2.77Zm14.05,3.19h9V375.92a8.26,8.26,0,0,1,.32-2.31,5.9,5.9,0,0,1,.91-2,4.78,4.78,0,0,1,1.45-1.35,3.75,3.75,0,0,1,2-.51,6.39,6.39,0,0,1,1.06.07c.29,0,.58.1.89.17l.57-7.71a5.93,5.93,0,0,0-.69-.12l-.74,0q-4.39,0-6,5.1h-.06V363h-8.68ZM304.92,363h-9v25.67h9Zm0-8.71a4.74,4.74,0,0,0-1-1.42,4.67,4.67,0,0,0-1.54-1,5.27,5.27,0,0,0-2-.37,5.16,5.16,0,0,0-2,.37,4.52,4.52,0,0,0-1.55,1,4.74,4.74,0,0,0-1,1.42,4.1,4.1,0,0,0-.37,1.75,4.19,4.19,0,0,0,1.37,3.16,5.48,5.48,0,0,0,7.09,0,4.19,4.19,0,0,0,1.37-3.16,4.25,4.25,0,0,0-.37-1.75m6.88,8.71v25.67h9V373.51a5.82,5.82,0,0,1,.91-3.41,3,3,0,0,1,2.58-1.3,2.12,2.12,0,0,1,2.14,1.23,7,7,0,0,1,.54,2.85v15.75h9V372.92a28.36,28.36,0,0,0-.29-4.07,9.91,9.91,0,0,0-1.14-3.48,6.43,6.43,0,0,0-2.4-2.43A8,8,0,0,0,328,362a7.85,7.85,0,0,0-4.68,1.35,7.29,7.29,0,0,0-2.63,3.21h-.11V363Zm45.3,0V366H357a6.45,6.45,0,0,0-2.14-2.76,6.72,6.72,0,0,0-4-1.07,8.44,8.44,0,0,0-4.23,1,9.6,9.6,0,0,0-3.11,2.82,13.1,13.1,0,0,0-1.94,4.27,21,21,0,0,0-.66,5.42,20.77,20.77,0,0,0,.63,5.23,12.84,12.84,0,0,0,1.89,4.22,8.68,8.68,0,0,0,7.42,3.8,7.16,7.16,0,0,0,3.83-1,5.65,5.65,0,0,0,2.28-2.28H357v2.12a6.82,6.82,0,0,1-1.23,4.16,4.65,4.65,0,0,1-4,1.67,8.87,8.87,0,0,1-3.4-.64,12.84,12.84,0,0,1-2.88-1.61l-4.17,5.69a17.15,17.15,0,0,0,4.91,2.38,20.08,20.08,0,0,0,6.12,1q7,0,10.16-3.51c2.13-2.34,3.2-5.71,3.2-10.08V363Zm-.06,15.51a8,8,0,0,1-.71,2.23,4.24,4.24,0,0,1-1.19,1.5,2.77,2.77,0,0,1-1.69.54,2.83,2.83,0,0,1-1.75-.54,4.09,4.09,0,0,1-1.17-1.5,8.74,8.74,0,0,1-.68-2.23,14.6,14.6,0,0,1-.23-2.7,14.45,14.45,0,0,1,.23-2.72,8.83,8.83,0,0,1,.68-2.21,4.09,4.09,0,0,1,1.17-1.5,2.83,2.83,0,0,1,1.75-.54,2.77,2.77,0,0,1,1.69.54,4.24,4.24,0,0,1,1.19,1.5,8.08,8.08,0,0,1,.71,2.21,15.29,15.29,0,0,1,.24,2.72,15.5,15.5,0,0,1-.24,2.7m47.25,10.16v-7.27h-10.8V353.88h-9.25v34.75Zm25.88-18.36a12.74,12.74,0,0,0-2.43-4.36,10.94,10.94,0,0,0-3.88-2.85,13.79,13.79,0,0,0-10.46,0,11.32,11.32,0,0,0-3.91,2.85,12.47,12.47,0,0,0-2.46,4.36,17.4,17.4,0,0,0-.85,5.55,17.13,17.13,0,0,0,.85,5.52,12.22,12.22,0,0,0,2.49,4.34,11.35,11.35,0,0,0,3.91,2.85,12.51,12.51,0,0,0,5.2,1,12.68,12.68,0,0,0,5.23-1,10.7,10.7,0,0,0,3.88-2.85,12.74,12.74,0,0,0,2.43-4.34,17.13,17.13,0,0,0,.86-5.52,17.4,17.4,0,0,0-.86-5.55m-7.94,8.23a8.36,8.36,0,0,1-.69,2.2,3.89,3.89,0,0,1-1.17,1.5,2.82,2.82,0,0,1-1.74.54,2.68,2.68,0,0,1-1.68-.54,4,4,0,0,1-1.18-1.5,8.75,8.75,0,0,1-.68-2.2,14.63,14.63,0,0,1-.23-2.73,14.45,14.45,0,0,1,.23-2.72,8.83,8.83,0,0,1,.68-2.21,4,4,0,0,1,1.18-1.5,2.68,2.68,0,0,1,1.68-.54,2.82,2.82,0,0,1,1.74.54,3.89,3.89,0,0,1,1.17,1.5,8.44,8.44,0,0,1,.69,2.21,15.33,15.33,0,0,1,.23,2.72,15.53,15.53,0,0,1-.23,2.73m32.39-13.18a15.21,15.21,0,0,0-4.46-2.31,16.68,16.68,0,0,0-5.25-.83,13.26,13.26,0,0,0-3.63.51,10.59,10.59,0,0,0-3.26,1.57,8.34,8.34,0,0,0-2.36,2.65,7.35,7.35,0,0,0-.92,3.76,6.7,6.7,0,0,0,2.14,5.2,7.47,7.47,0,0,0,2.14,1.4,21.64,21.64,0,0,0,2.4.86,19.9,19.9,0,0,1,3.43,1.2,1.87,1.87,0,0,1,1.15,1.79,2.11,2.11,0,0,1-.72,1.67,2.88,2.88,0,0,1-2,.64,6.81,6.81,0,0,1-3.06-.69,11.23,11.23,0,0,1-2.59-1.77l-4.46,4.91a14.6,14.6,0,0,0,4.77,2.6,17.93,17.93,0,0,0,5.74.93,13.86,13.86,0,0,0,3.57-.49,10.27,10.27,0,0,0,3.34-1.52,8.42,8.42,0,0,0,2.46-2.7,7.82,7.82,0,0,0,1-4,6.71,6.71,0,0,0-.66-3.07,7.48,7.48,0,0,0-1.69-2.23,8.65,8.65,0,0,0-2.34-1.52,17.17,17.17,0,0,0-2.62-.94,14.8,14.8,0,0,1-3.12-1.05,1.55,1.55,0,0,1-.83-1.45,1.94,1.94,0,0,1,.77-1.62,3,3,0,0,1,1.86-.59,6.31,6.31,0,0,1,2.63.54,9.29,9.29,0,0,1,2.23,1.43Zm22.51,0A15.21,15.21,0,0,0,472.7,363a16.72,16.72,0,0,0-5.25-.83,13.26,13.26,0,0,0-3.63.51,10.59,10.59,0,0,0-3.26,1.57,8.49,8.49,0,0,0-2.37,2.65,7.45,7.45,0,0,0-.91,3.76,6.7,6.7,0,0,0,2.14,5.2,7.39,7.39,0,0,0,2.15,1.4,20.79,20.79,0,0,0,2.39.86,20.22,20.22,0,0,1,3.43,1.2,1.87,1.87,0,0,1,1.14,1.79,2.14,2.14,0,0,1-.71,1.67,2.88,2.88,0,0,1-2,.64,6.81,6.81,0,0,1-3.06-.69,11.5,11.5,0,0,1-2.6-1.77l-4.46,4.91a14.81,14.81,0,0,0,4.77,2.6,18,18,0,0,0,5.75.93,13.86,13.86,0,0,0,3.57-.49,10.27,10.27,0,0,0,3.34-1.52,8.28,8.28,0,0,0,2.45-2.7,7.73,7.73,0,0,0,1-4,6.71,6.71,0,0,0-.66-3.07,7.79,7.79,0,0,0-1.68-2.23,8.87,8.87,0,0,0-2.35-1.52,16.91,16.91,0,0,0-2.63-.94,14.87,14.87,0,0,1-3.11-1.05,1.55,1.55,0,0,1-.83-1.45,1.94,1.94,0,0,1,.77-1.62,3,3,0,0,1,1.86-.59,6.31,6.31,0,0,1,2.63.54,9.1,9.1,0,0,1,2.23,1.43Zm42.44,23.31-9.76-34.75H498.36l-9.83,34.75h9.14l1.66-6.33h9.08l1.65,6.33Zm-12.33-12.42h-6.91l3.42-14.77H504Zm34.16-10.89A15.15,15.15,0,0,0,537,363a16.83,16.83,0,0,0-5.26-.83,13.26,13.26,0,0,0-3.63.51,10.59,10.59,0,0,0-3.26,1.57,8.34,8.34,0,0,0-2.36,2.65,7.35,7.35,0,0,0-.92,3.76,6.7,6.7,0,0,0,2.14,5.2,7.47,7.47,0,0,0,2.14,1.4,21.64,21.64,0,0,0,2.4.86,19.9,19.9,0,0,1,3.43,1.2,1.87,1.87,0,0,1,1.14,1.79,2.14,2.14,0,0,1-.71,1.67,2.9,2.9,0,0,1-2,.64,6.81,6.81,0,0,1-3.06-.69,11.23,11.23,0,0,1-2.59-1.77L520,385.88a14.65,14.65,0,0,0,4.76,2.6,18,18,0,0,0,5.75.93,13.86,13.86,0,0,0,3.57-.49,10.27,10.27,0,0,0,3.34-1.52,8.42,8.42,0,0,0,2.46-2.7,7.82,7.82,0,0,0,1-4,6.71,6.71,0,0,0-.66-3.07,7.65,7.65,0,0,0-1.69-2.23,8.65,8.65,0,0,0-2.34-1.52,16.91,16.91,0,0,0-2.63-.94,14.87,14.87,0,0,1-3.11-1.05,1.55,1.55,0,0,1-.83-1.45,1.94,1.94,0,0,1,.77-1.62,3,3,0,0,1,1.86-.59,6.35,6.35,0,0,1,2.63.54,9.29,9.29,0,0,1,2.23,1.43Zm22.51,0a15.21,15.21,0,0,0-4.46-2.31,16.77,16.77,0,0,0-5.25-.83,13.26,13.26,0,0,0-3.63.51,10.59,10.59,0,0,0-3.26,1.57,8.49,8.49,0,0,0-2.37,2.65,7.45,7.45,0,0,0-.91,3.76,6.7,6.7,0,0,0,2.14,5.2,7.47,7.47,0,0,0,2.14,1.4,20.94,20.94,0,0,0,2.4.86,19.9,19.9,0,0,1,3.43,1.2,1.87,1.87,0,0,1,1.14,1.79,2.14,2.14,0,0,1-.71,1.67,2.9,2.9,0,0,1-2,.64,6.81,6.81,0,0,1-3.06-.69A11.5,11.5,0,0,1,547,381l-4.46,4.91a14.81,14.81,0,0,0,4.77,2.6,18,18,0,0,0,5.74.93,13.88,13.88,0,0,0,3.58-.49,10.37,10.37,0,0,0,3.34-1.52,8.42,8.42,0,0,0,2.46-2.7,7.92,7.92,0,0,0,1-4,6.71,6.71,0,0,0-.66-3.07,7.65,7.65,0,0,0-1.69-2.23,8.65,8.65,0,0,0-2.34-1.52,17.28,17.28,0,0,0-2.63-.94,14.65,14.65,0,0,1-3.11-1.05,1.55,1.55,0,0,1-.83-1.45,1.94,1.94,0,0,1,.77-1.62,3,3,0,0,1,1.86-.59,6.35,6.35,0,0,1,2.63.54,9.29,9.29,0,0,1,2.23,1.43Zm26.68,4.95a12.74,12.74,0,0,0-2.43-4.36,11,11,0,0,0-3.89-2.85,13.77,13.77,0,0,0-10.45,0,11.36,11.36,0,0,0-3.92,2.85,12.61,12.61,0,0,0-2.45,4.36,17.4,17.4,0,0,0-.86,5.55,17.13,17.13,0,0,0,.86,5.52,12.35,12.35,0,0,0,2.48,4.34,11.39,11.39,0,0,0,3.92,2.85,12.44,12.44,0,0,0,5.2,1,12.63,12.63,0,0,0,5.22-1,10.74,10.74,0,0,0,3.89-2.85,12.74,12.74,0,0,0,2.43-4.34,17.13,17.13,0,0,0,.85-5.52,17.4,17.4,0,0,0-.85-5.55m-7.94,8.23a8.36,8.36,0,0,1-.69,2.2,3.89,3.89,0,0,1-1.17,1.5,2.78,2.78,0,0,1-1.74.54,2.73,2.73,0,0,1-1.69-.54,4.09,4.09,0,0,1-1.17-1.5,8.36,8.36,0,0,1-.68-2.2,14.63,14.63,0,0,1-.23-2.73,14.45,14.45,0,0,1,.23-2.72,8.44,8.44,0,0,1,.68-2.21,4.09,4.09,0,0,1,1.17-1.5,2.73,2.73,0,0,1,1.69-.54,2.78,2.78,0,0,1,1.74.54,3.89,3.89,0,0,1,1.17,1.5,8.44,8.44,0,0,1,.69,2.21,15.37,15.37,0,0,1,.22,2.72,15.56,15.56,0,0,1-.22,2.73M614,386.66l-3.6-5.93a3.52,3.52,0,0,1-1.17,1.1,3.27,3.27,0,0,1-1.68.42,3.4,3.4,0,0,1-3-1.69,11.07,11.07,0,0,1,0-9.6,3.24,3.24,0,0,1,2.77-1.72,3.53,3.53,0,0,1,1.66.39,3.87,3.87,0,0,1,1.26,1.09l3.59-6a9.49,9.49,0,0,0-2.85-1.77,11,11,0,0,0-4.34-.78,12.06,12.06,0,0,0-5.06,1A10.19,10.19,0,0,0,598,366a13,13,0,0,0-2.29,4.29,17.8,17.8,0,0,0-.8,5.47,18.75,18.75,0,0,0,.77,5.5,12.78,12.78,0,0,0,2.26,4.32,10.29,10.29,0,0,0,3.66,2.82,13.18,13.18,0,0,0,9.36.27,8.31,8.31,0,0,0,3.09-2M626.21,363h-9v25.67h9Zm0-8.71a4.74,4.74,0,0,0-1-1.42,4.67,4.67,0,0,0-1.54-1,5.27,5.27,0,0,0-2-.37,5.16,5.16,0,0,0-2,.37,4.38,4.38,0,0,0-1.54,1,4.6,4.6,0,0,0-1,1.42,4.1,4.1,0,0,0-.37,1.75,4.17,4.17,0,0,0,1.38,3.16,5.47,5.47,0,0,0,7.08,0,4.19,4.19,0,0,0,1.37-3.16,4.1,4.1,0,0,0-.37-1.75m19,24.61a7.39,7.39,0,0,1-.23,1.79,5.38,5.38,0,0,1-.68,1.62,3.47,3.47,0,0,1-3,1.6,2.67,2.67,0,0,1-1.86-.71,2.94,2.94,0,0,1-.77-2.24,3.3,3.3,0,0,1,.4-1.69,3.22,3.22,0,0,1,1.09-1.08,4.4,4.4,0,0,1,1.6-.56,11.63,11.63,0,0,1,1.88-.15h1.6Zm.4,6.58v3.19H653V374a20.07,20.07,0,0,0-.57-5,9,9,0,0,0-1.89-3.7,8.23,8.23,0,0,0-3.42-2.31,15.88,15.88,0,0,0-10.55.25,12.26,12.26,0,0,0-4.54,2.9l4,4.71a7.86,7.86,0,0,1,2.31-1.62,6.84,6.84,0,0,1,3-.64,4.05,4.05,0,0,1,2.66.83,3.36,3.36,0,0,1,1,2.7v.39H643.8a25.45,25.45,0,0,0-4.62.42,12.72,12.72,0,0,0-4.09,1.45,8.25,8.25,0,0,0-2.91,2.75,7.88,7.88,0,0,0-1.12,4.36,8.4,8.4,0,0,0,.74,3.71,7,7,0,0,0,1.89,2.4,7.15,7.15,0,0,0,2.52,1.31,9.71,9.71,0,0,0,2.68.39,8.15,8.15,0,0,0,4.37-1.06,5.16,5.16,0,0,0,2.26-2.77Zm27.37,3v-6a4.57,4.57,0,0,1-2,.39,2.61,2.61,0,0,1-2.17-.86,4.4,4.4,0,0,1-.69-2.74V369h5.14v-6h-5.14v-6.18h-8.68V363h-3.55v6h3.6v12q0,4.17,2.06,6.26t6.57,2.09a15.78,15.78,0,0,0,2.74-.25,8.85,8.85,0,0,0,2.12-.59M686,363h-9v25.67h9Zm0-8.71a4.59,4.59,0,0,0-2.54-2.4,5.59,5.59,0,0,0-4,0,4.57,4.57,0,0,0-1.54,1,4.74,4.74,0,0,0-1,1.42,4.1,4.1,0,0,0-.37,1.75,4.19,4.19,0,0,0,1.37,3.16,5.47,5.47,0,0,0,7.08,0,4.16,4.16,0,0,0,1.37-3.16,4.1,4.1,0,0,0-.37-1.75m29,16a12.74,12.74,0,0,0-2.43-4.36,10.94,10.94,0,0,0-3.88-2.85,13.77,13.77,0,0,0-10.45,0,11.27,11.27,0,0,0-3.92,2.85,12.79,12.79,0,0,0-2.46,4.36,17.4,17.4,0,0,0-.85,5.55,17.13,17.13,0,0,0,.85,5.52,12.53,12.53,0,0,0,2.49,4.34,11.35,11.35,0,0,0,3.91,2.85,12.51,12.51,0,0,0,5.2,1,12.68,12.68,0,0,0,5.23-1,10.7,10.7,0,0,0,3.88-2.85,12.74,12.74,0,0,0,2.43-4.34,17.13,17.13,0,0,0,.86-5.52,17.4,17.4,0,0,0-.86-5.55m-7.94,8.23a8.75,8.75,0,0,1-.68,2.2,4.09,4.09,0,0,1-1.17,1.5,2.87,2.87,0,0,1-1.75.54,2.7,2.7,0,0,1-1.68-.54,4,4,0,0,1-1.18-1.5,8.75,8.75,0,0,1-.68-2.2,14.63,14.63,0,0,1-.23-2.73,14.45,14.45,0,0,1,.23-2.72,8.83,8.83,0,0,1,.68-2.21,4,4,0,0,1,1.18-1.5,2.7,2.7,0,0,1,1.68-.54,2.87,2.87,0,0,1,1.75.54,4.09,4.09,0,0,1,1.17,1.5,8.83,8.83,0,0,1,.68,2.21,15.33,15.33,0,0,1,.23,2.72,15.53,15.53,0,0,1-.23,2.73m14-15.54v25.67h9V373.51a5.83,5.83,0,0,1,.92-3.41,3,3,0,0,1,2.57-1.3,2.11,2.11,0,0,1,2.14,1.23,7,7,0,0,1,.54,2.85v15.75h9V372.92a28.38,28.38,0,0,0-.28-4.07,9.72,9.72,0,0,0-1.15-3.48,6.34,6.34,0,0,0-2.39-2.43,8,8,0,0,0-4.12-.91,7.85,7.85,0,0,0-4.68,1.35,7.22,7.22,0,0,0-2.63,3.21h-.11V363Zm64.44,7.31a12.72,12.72,0,0,0-2.42-4.36,11.06,11.06,0,0,0-3.89-2.85,13.77,13.77,0,0,0-10.45,0,11.14,11.14,0,0,0-3.91,2.85,12.47,12.47,0,0,0-2.46,4.36,17.4,17.4,0,0,0-.86,5.55,17.13,17.13,0,0,0,.86,5.52,12.35,12.35,0,0,0,2.48,4.34,11.39,11.39,0,0,0,3.92,2.85,12.43,12.43,0,0,0,5.19,1,12.68,12.68,0,0,0,5.23-1,10.82,10.82,0,0,0,3.89-2.85,12.72,12.72,0,0,0,2.42-4.34,16.86,16.86,0,0,0,.86-5.52,17.13,17.13,0,0,0-.86-5.55m-7.94,8.23a8.75,8.75,0,0,1-.68,2.2,4,4,0,0,1-1.17,1.5,2.83,2.83,0,0,1-1.75.54,2.72,2.72,0,0,1-1.68-.54,3.89,3.89,0,0,1-1.17-1.5,8.75,8.75,0,0,1-.69-2.2,15.56,15.56,0,0,1-.22-2.73,15.37,15.37,0,0,1,.22-2.72,8.83,8.83,0,0,1,.69-2.21,3.89,3.89,0,0,1,1.17-1.5,2.72,2.72,0,0,1,1.68-.54,2.83,2.83,0,0,1,1.75.54,4,4,0,0,1,1.17,1.5,8.83,8.83,0,0,1,.68,2.21,15.29,15.29,0,0,1,.24,2.72,15.5,15.5,0,0,1-.24,2.73m28.57-27.8a11.06,11.06,0,0,0-1.88-.3c-.73-.07-1.36-.1-1.89-.1a12.66,12.66,0,0,0-5,.86,8.29,8.29,0,0,0-3.2,2.31,8.81,8.81,0,0,0-1.72,3.33,15.33,15.33,0,0,0-.51,4V363h-3.54v6h3.54v19.68h8.74V369h4.52v-6h-4.57v-2.11a6.19,6.19,0,0,1,.65-2.92,2.61,2.61,0,0,1,2.54-1.25,6.75,6.75,0,0,1,1.83.24Zm41.87,37.93-9.76-34.75H826.84L817,388.63h9.14l1.66-6.33h9.08l1.65,6.33Zm-12.33-12.42h-6.91l3.42-14.77h.23ZM851.58,363v25.67h8.79V373.51a6,6,0,0,1,.89-3.41,2.88,2.88,0,0,1,2.54-1.3A2.12,2.12,0,0,1,866,370a7,7,0,0,1,.54,2.85v15.75h8.8V373.51a6,6,0,0,1,.88-3.41,2.89,2.89,0,0,1,2.55-1.3,2.18,2.18,0,0,1,2.17,1.23,6.87,6.87,0,0,1,.57,2.85v15.75h8.85V372.92a25.72,25.72,0,0,0-.31-4.07,10.36,10.36,0,0,0-1.17-3.48,6.32,6.32,0,0,0-2.46-2.43,8.34,8.34,0,0,0-4.17-.91,8.82,8.82,0,0,0-2.77.4,8.22,8.22,0,0,0-2.17,1,7.18,7.18,0,0,0-1.6,1.44,8.05,8.05,0,0,0-1.06,1.69h-.11a7.17,7.17,0,0,0-2.2-3.24,7.3,7.3,0,0,0-4.77-1.32,7.69,7.69,0,0,0-4.69,1.35,6.32,6.32,0,0,0-2.4,3.21h-.11V363Zm67.3,14.77v-2.16a22,22,0,0,0-.63-5.42,11.51,11.51,0,0,0-2-4.27,9.87,9.87,0,0,0-3.57-2.82,12.15,12.15,0,0,0-5.26-1,12,12,0,0,0-4.91,1,11.35,11.35,0,0,0-3.86,2.78,12.45,12.45,0,0,0-2.51,4.36,17.51,17.51,0,0,0-.89,5.72,16.92,16.92,0,0,0,.95,5.89,12,12,0,0,0,2.63,4.29,10.92,10.92,0,0,0,3.94,2.63,13.23,13.23,0,0,0,4.88.88,12.11,12.11,0,0,0,6.6-1.67,11.47,11.47,0,0,0,4.14-4.51l-6.57-3.19a5.77,5.77,0,0,1-1.43,2A3.38,3.38,0,0,1,908,383a3.3,3.3,0,0,1-1.66-.41,3.78,3.78,0,0,1-1.26-1.13,6.06,6.06,0,0,1-.83-1.67,6.5,6.5,0,0,1-.31-2Zm-15-5a6.37,6.37,0,0,1,.23-1.6,5.53,5.53,0,0,1,.68-1.57,4.5,4.5,0,0,1,1.12-1.18,2.65,2.65,0,0,1,1.57-.46,2.59,2.59,0,0,1,2.46,1.37,7.24,7.24,0,0,1,.74,3.44Zm20.23,15.9h9V375.92a8.63,8.63,0,0,1,.31-2.31,6.11,6.11,0,0,1,.91-2,4.7,4.7,0,0,1,1.46-1.35,3.72,3.72,0,0,1,2-.51,6.39,6.39,0,0,1,1.06.07c.28,0,.58.1.88.17l.57-7.71a6.19,6.19,0,0,0-.68-.12l-.75,0q-4.39,0-6,5.1h-.06V363h-8.68ZM952.59,363h-9v25.67h9Zm0-8.71a4.74,4.74,0,0,0-1-1.42,4.57,4.57,0,0,0-1.54-1,5.59,5.59,0,0,0-4,0,4.59,4.59,0,0,0-2.54,2.4,4.11,4.11,0,0,0-.38,1.75,4.17,4.17,0,0,0,1.38,3.16,5.47,5.47,0,0,0,7.08,0A4.16,4.16,0,0,0,953,356a4.1,4.1,0,0,0-.37-1.75m24.19,32.41-3.6-5.93a3.52,3.52,0,0,1-1.17,1.1,3.22,3.22,0,0,1-1.68.42,3.37,3.37,0,0,1-3-1.69,11,11,0,0,1,0-9.6,3.23,3.23,0,0,1,2.77-1.72,3.46,3.46,0,0,1,1.65.39,3.77,3.77,0,0,1,1.26,1.09l3.6-6a9.56,9.56,0,0,0-2.86-1.77,11,11,0,0,0-4.34-.78,12,12,0,0,0-5,1,10.14,10.14,0,0,0-3.69,2.83,13,13,0,0,0-2.28,4.29,17.5,17.5,0,0,0-.81,5.47,18.41,18.41,0,0,0,.78,5.5,12.59,12.59,0,0,0,2.25,4.32,10.47,10.47,0,0,0,3.66,2.82,13.2,13.2,0,0,0,9.37.27,8.19,8.19,0,0,0,3.08-2m15.43-7.8a7.39,7.39,0,0,1-.23,1.79,5.15,5.15,0,0,1-.69,1.62,3.48,3.48,0,0,1-1.22,1.16,3.64,3.64,0,0,1-1.8.44,2.65,2.65,0,0,1-1.86-.71,2.94,2.94,0,0,1-.77-2.24,3.2,3.2,0,0,1,.4-1.69,3.28,3.28,0,0,1,1.08-1.08,4.47,4.47,0,0,1,1.6-.56,11.67,11.67,0,0,1,1.89-.15h1.6Zm.4,6.58v3.19H1000V374a20.54,20.54,0,0,0-.57-5,9,9,0,0,0-1.89-3.7,8.27,8.27,0,0,0-3.43-2.31,14.91,14.91,0,0,0-5.14-.78,15.07,15.07,0,0,0-5.4,1,12.26,12.26,0,0,0-4.54,2.9l4,4.71a7.82,7.82,0,0,1,2.3-1.62,6.88,6.88,0,0,1,3-.64,4,4,0,0,1,2.65.83,3.33,3.33,0,0,1,1,2.7v.39H990.8a25.64,25.64,0,0,0-4.63.42,12.66,12.66,0,0,0-4.08,1.45,8.25,8.25,0,0,0-2.91,2.75,7.8,7.8,0,0,0-1.12,4.36,8.4,8.4,0,0,0,.74,3.71,6.85,6.85,0,0,0,1.89,2.4,7.11,7.11,0,0,0,2.51,1.31,9.78,9.78,0,0,0,2.69.39,8.2,8.2,0,0,0,4.37-1.06,5.1,5.1,0,0,0,2.25-2.77Z"/><path class="cls-1" d="M984.27,487.24h5.88V474.65a6.7,6.7,0,0,1,.23-1.47,5.91,5.91,0,0,1,.87-2,6.17,6.17,0,0,1,1.92-1.74,6.35,6.35,0,0,1,3.3-.76,8.38,8.38,0,0,1,1.4.13c.47.08,1,.19,1.44.32v-5.69q-.54-.15-1-.24a5.26,5.26,0,0,0-1-.1,7.67,7.67,0,0,0-4.17,1.13,7.34,7.34,0,0,0-2.79,3.18h-.1v-3.72h-5.88Zm-23.41-14.11a6.78,6.78,0,0,1,1.89-4.06,5.69,5.69,0,0,1,4.18-1.52A6.11,6.11,0,0,1,971.3,469a5.55,5.55,0,0,1,1.61,4.09Zm17.93,4.41v-1.61a17,17,0,0,0-.81-5.47,11.54,11.54,0,0,0-2.25-4,9.62,9.62,0,0,0-3.48-2.47,11.43,11.43,0,0,0-4.48-.86,14.11,14.11,0,0,0-5,.88,12,12,0,0,0-4.06,2.5,11.86,11.86,0,0,0-2.72,3.89,13.23,13.23,0,0,0,0,10.14,11.64,11.64,0,0,0,6.78,6.39,13.89,13.89,0,0,0,5,.89,13.56,13.56,0,0,0,5.34-1.08,11.89,11.89,0,0,0,4.6-3.63l-4.21-3.18a10.15,10.15,0,0,1-2.62,2.28,7,7,0,0,1-3.7.9,6.41,6.41,0,0,1-4.26-1.46,6,6,0,0,1-2.06-4.12Zm-39.58-8.82V479.5a18.45,18.45,0,0,0,.32,3.62,5.89,5.89,0,0,0,1.18,2.63,5,5,0,0,0,2.35,1.56,11.79,11.79,0,0,0,3.84.52,20,20,0,0,0,2.38-.17,7.62,7.62,0,0,0,2.28-.62v-5a3.62,3.62,0,0,1-1.47.57,9,9,0,0,1-1.72.17,2.88,2.88,0,0,1-2.62-1,5.1,5.1,0,0,1-.66-2.79V468.72h6.47v-5h-6.47v-6.81h-5.88v6.81h-4.84v5Zm-13.93,9.41a6.51,6.51,0,0,1-1.38,2.25,6.61,6.61,0,0,1-2.17,1.57,7.37,7.37,0,0,1-5.78,0,6.66,6.66,0,0,1-2.18-1.57,6.49,6.49,0,0,1-1.37-2.25,7.68,7.68,0,0,1,0-5.29,6.49,6.49,0,0,1,1.37-2.25A6.66,6.66,0,0,1,916,469a7.37,7.37,0,0,1,5.78,0,6.61,6.61,0,0,1,2.17,1.57,6.51,6.51,0,0,1,1.38,2.25,7.83,7.83,0,0,1,0,5.29m-19,20.28h5.88V484.25h.14a8.8,8.8,0,0,0,1.13,1.2,8.64,8.64,0,0,0,1.66,1.15,10.86,10.86,0,0,0,2.26.89,11.7,11.7,0,0,0,2.94.34,11,11,0,0,0,4.6-1,10.62,10.62,0,0,0,3.6-2.62,12.29,12.29,0,0,0,2.33-3.92,14,14,0,0,0,.83-4.85,14.66,14.66,0,0,0-.78-4.84,11,11,0,0,0-2.31-3.92,10.86,10.86,0,0,0-3.67-2.63,12,12,0,0,0-4.85-.95,11.14,11.14,0,0,0-4.65,1,7.56,7.56,0,0,0-3.43,3.13h-.1v-3.52h-5.58ZM894.3,478a5.32,5.32,0,0,1-1.45,3.94,6.08,6.08,0,0,1-4.48,1.45,6.7,6.7,0,0,1-1.47-.17,3.92,3.92,0,0,1-1.32-.57,3.19,3.19,0,0,1-1-.95,2.45,2.45,0,0,1-.37-1.4,2.39,2.39,0,0,1,.92-2,6.85,6.85,0,0,1,2.29-1.08,15,15,0,0,1,2.86-.47c1-.06,1.93-.09,2.74-.09h1.23Zm.34,9.21h5.29V473.72c0-.55,0-1.2,0-1.93a12.38,12.38,0,0,0-.32-2.28,9.34,9.34,0,0,0-.88-2.33,6.42,6.42,0,0,0-1.74-2,9.34,9.34,0,0,0-2.84-1.45,13.8,13.8,0,0,0-4.21-.56,16.86,16.86,0,0,0-5.42.88,11.48,11.48,0,0,0-4.58,2.89L883,470a8.85,8.85,0,0,1,2.79-1.79,9.13,9.13,0,0,1,3.48-.66,6.44,6.44,0,0,1,3.87,1.1,3.83,3.83,0,0,1,1.52,3.31v.63h-1.47c-1,0-2,0-3.14.08a28,28,0,0,0-3.3.34,18.07,18.07,0,0,0-3.16.81,9.49,9.49,0,0,0-2.67,1.44,6.76,6.76,0,0,0-1.84,2.26,7,7,0,0,0-.68,3.25,6.25,6.25,0,0,0,.73,3.09,6.74,6.74,0,0,0,1.94,2.2,8.3,8.3,0,0,0,2.74,1.32,11.23,11.23,0,0,0,3.16.45,10.21,10.21,0,0,0,4.31-.91A7.58,7.58,0,0,0,894.5,484h.14Zm-36.93-37h-5.88v37h5.88V474.41a8.8,8.8,0,0,1,.29-2.26,5.46,5.46,0,0,1,1-1.91,4.81,4.81,0,0,1,1.66-1.32,5.59,5.59,0,0,1,2.48-.49,3.75,3.75,0,0,1,2.4.71,4.25,4.25,0,0,1,1.29,1.76,8,8,0,0,1,.52,2.26c.06.8.1,1.52.1,2.18v11.9h5.88V472.4a13.72,13.72,0,0,0-.45-3.48,7.69,7.69,0,0,0-1.47-2.94,7.44,7.44,0,0,0-2.66-2.05,9.15,9.15,0,0,0-4-.79,7.74,7.74,0,0,0-4.48,1.2,6.78,6.78,0,0,0-2.42,2.67h-.1Zm-10.29,7a15.12,15.12,0,0,0-5.61-4.24,16.74,16.74,0,0,0-6.53-1.25,20.22,20.22,0,0,0-7.38,1.3,16.79,16.79,0,0,0-5.78,3.69,17,17,0,0,0-3.79,5.81,20,20,0,0,0-1.37,7.57,19.11,19.11,0,0,0,1.37,7.39,16.78,16.78,0,0,0,3.79,5.71,17.06,17.06,0,0,0,5.78,3.68,20.43,20.43,0,0,0,7.38,1.29,17.82,17.82,0,0,0,7.19-1.47,13.82,13.82,0,0,0,5.73-4.7l-5.09-3.62a11.29,11.29,0,0,1-3.7,3.21,9,9,0,0,1-4.09,1,11.8,11.8,0,0,1-4.87-1,11.15,11.15,0,0,1-3.75-2.7,12,12,0,0,1-2.42-4.06,14.77,14.77,0,0,1-.86-5.15,13.42,13.42,0,0,1,.86-4.85,12.1,12.1,0,0,1,2.42-3.94,11.13,11.13,0,0,1,3.75-2.64,12,12,0,0,1,4.87-1,9.92,9.92,0,0,1,3.6.69,10.28,10.28,0,0,1,3.7,2.74Zm-48.93,9.55a7.62,7.62,0,0,0-3.72-2.77,13.85,13.85,0,0,0-8.13-.37,9.27,9.27,0,0,0-3,1.37,7.17,7.17,0,0,0-2.13,2.38,6.84,6.84,0,0,0-.81,3.4,5.9,5.9,0,0,0,.93,3.53,6.47,6.47,0,0,0,2.35,2,12,12,0,0,0,3.06,1c1.09.22,2.12.44,3.07.69a8.09,8.09,0,0,1,2.34,1,2,2,0,0,1,.94,1.81,2.09,2.09,0,0,1-.37,1.21,3.16,3.16,0,0,1-1,.85,4.24,4.24,0,0,1-1.27.49,6.22,6.22,0,0,1-1.32.15,5.84,5.84,0,0,1-3.16-.81,10.93,10.93,0,0,1-2.43-2.08l-3.91,3.67A9.54,9.54,0,0,0,784,487a15.33,15.33,0,0,0,5.05.79,17.21,17.21,0,0,0,3.62-.39,10.67,10.67,0,0,0,3.26-1.28,7.07,7.07,0,0,0,2.35-2.33,6.57,6.57,0,0,0,.9-3.55,6.2,6.2,0,0,0-.93-3.62,6.71,6.71,0,0,0-2.35-2.08,12,12,0,0,0-3.06-1.13c-1.09-.24-2.11-.48-3.06-.71a10.59,10.59,0,0,1-2.35-.83,1.65,1.65,0,0,1-.93-1.57,2,2,0,0,1,1.13-1.91,4.88,4.88,0,0,1,2.29-.59,5.38,5.38,0,0,1,4.61,2.4Zm-42.15,6.12a6.64,6.64,0,0,1,1.37-2.25,6.76,6.76,0,0,1,2.18-1.57,7.37,7.37,0,0,1,5.78,0,6.66,6.66,0,0,1,2.18,1.57,6.49,6.49,0,0,1,1.37,2.25,7.68,7.68,0,0,1,0,5.29,6.49,6.49,0,0,1-1.37,2.25,6.66,6.66,0,0,1-2.18,1.57,7.37,7.37,0,0,1-5.78,0,6.76,6.76,0,0,1-2.18-1.57,6.64,6.64,0,0,1-1.37-2.25,7.83,7.83,0,0,1,0-5.29m13.45,14.4h5.58v-37h-5.88v16.51h-.14a10.23,10.23,0,0,0-1.13-1.21,8.85,8.85,0,0,0-1.67-1.14,10.05,10.05,0,0,0-2.25-.89,11.31,11.31,0,0,0-2.94-.34,11.1,11.1,0,0,0-4.6.95,10.68,10.68,0,0,0-3.6,2.63,11.83,11.83,0,0,0-2.33,3.92,13.71,13.71,0,0,0-.83,4.84,14.68,14.68,0,0,0,.78,4.85,11.09,11.09,0,0,0,2.31,3.92,10.68,10.68,0,0,0,3.64,2.62,11.77,11.77,0,0,0,4.88,1,11.17,11.17,0,0,0,4.65-1,7.53,7.53,0,0,0,3.43-3.14h.1Zm-31-29a3.62,3.62,0,0,0,2.67,1,3.89,3.89,0,0,0,2.71-1,3.43,3.43,0,0,0,0-5,3.85,3.85,0,0,0-2.71-1,3.62,3.62,0,0,0-2.67,1,3.42,3.42,0,0,0,0,5m-.22,29h5.87V463.73h-5.87Zm-11.93-9.11a6.64,6.64,0,0,1-1.37,2.25,7.14,7.14,0,0,1-8,1.57,6.66,6.66,0,0,1-2.18-1.57,6.49,6.49,0,0,1-1.37-2.25,7.68,7.68,0,0,1,0-5.29,6.49,6.49,0,0,1,1.37-2.25,6.66,6.66,0,0,1,2.18-1.57,6.94,6.94,0,0,1,8,1.57,6.64,6.64,0,0,1,1.37,2.25,7.68,7.68,0,0,1,0,5.29m-19,20.28h5.88V484.25h.15a8.11,8.11,0,0,0,1.12,1.2,8.43,8.43,0,0,0,1.67,1.15,10.55,10.55,0,0,0,2.25.89,11.76,11.76,0,0,0,2.94.34,11,11,0,0,0,4.6-1,10.52,10.52,0,0,0,3.6-2.62,12.11,12.11,0,0,0,2.33-3.92,14,14,0,0,0,.83-4.85,14.66,14.66,0,0,0-.78-4.84,11.28,11.28,0,0,0-2.3-3.92,11,11,0,0,0-3.68-2.63,11.91,11.91,0,0,0-4.84-.95,11.19,11.19,0,0,0-4.66,1,7.56,7.56,0,0,0-3.43,3.13h-.1v-3.52h-5.58Zm-12-20.38a5.32,5.32,0,0,1-1.44,3.94,6.11,6.11,0,0,1-4.49,1.45,6.54,6.54,0,0,1-1.46-.17,3.88,3.88,0,0,1-1.33-.57,3.47,3.47,0,0,1-1-.95,2.53,2.53,0,0,1-.36-1.4,2.37,2.37,0,0,1,.93-2,6.74,6.74,0,0,1,2.27-1.08,15.22,15.22,0,0,1,2.87-.47c1-.06,1.93-.09,2.74-.09h1.23Zm.34,9.21h5.29V473.72c0-.55,0-1.2,0-1.93a12.34,12.34,0,0,0-.31-2.28,9.79,9.79,0,0,0-.89-2.33,6.17,6.17,0,0,0-1.74-2,9.22,9.22,0,0,0-2.84-1.45,13.76,13.76,0,0,0-4.21-.56,16.76,16.76,0,0,0-5.41.88,11.34,11.34,0,0,0-4.58,2.89l3.09,3.09a8.74,8.74,0,0,1,2.79-1.79,9,9,0,0,1,3.47-.66,6.44,6.44,0,0,1,3.87,1.1A3.8,3.8,0,0,1,696,472v.63H694.5c-1,0-2,0-3.13.08a28.34,28.34,0,0,0-3.31.34,18.54,18.54,0,0,0-3.16.81,9.49,9.49,0,0,0-2.67,1.44,6.74,6.74,0,0,0-1.83,2.26,7,7,0,0,0-.69,3.25,6.15,6.15,0,0,0,.74,3.09,6.59,6.59,0,0,0,1.93,2.2,8.4,8.4,0,0,0,2.74,1.32,11.28,11.28,0,0,0,3.16.45,10.18,10.18,0,0,0,4.31-.91,7.45,7.45,0,0,0,3.23-2.91H696Zm-38.84-20v-9.4h5.34a20.27,20.27,0,0,1,2.42.15,7.43,7.43,0,0,1,2.28.61,3.92,3.92,0,0,1,1.67,1.4,4.28,4.28,0,0,1,.63,2.45,4.53,4.53,0,0,1-.68,2.66,4,4,0,0,1-1.79,1.42,8.18,8.18,0,0,1-2.42.59,26.24,26.24,0,0,1-2.65.12Zm-6.17,20h6.17v-14.7h4.5l8,14.7h7.44l-9.21-15.33a9,9,0,0,0,6-3.09,10.94,10.94,0,0,0,1-11.16,8.28,8.28,0,0,0-2.89-3,12.4,12.4,0,0,0-4.14-1.59,24.57,24.57,0,0,0-4.83-.47H651Zm-40.73-14.4a6.7,6.7,0,0,1,3.55-3.82,7.37,7.37,0,0,1,5.78,0,6.76,6.76,0,0,1,2.18,1.57,6.64,6.64,0,0,1,1.37,2.25,7.68,7.68,0,0,1,0,5.29,6.64,6.64,0,0,1-1.37,2.25,6.76,6.76,0,0,1-2.18,1.57,7.37,7.37,0,0,1-5.78,0,6.7,6.7,0,0,1-3.55-3.82,7.68,7.68,0,0,1,0-5.29m13.45,14.4h5.58v-37h-5.88v16.51h-.15a8.67,8.67,0,0,0-1.12-1.21,8.85,8.85,0,0,0-1.67-1.14,10.05,10.05,0,0,0-2.25-.89,11.31,11.31,0,0,0-2.94-.34,11.07,11.07,0,0,0-4.6.95,10.68,10.68,0,0,0-3.6,2.63,12,12,0,0,0-2.33,3.92,13.71,13.71,0,0,0-.83,4.84,14.68,14.68,0,0,0,.78,4.85,11.22,11.22,0,0,0,2.3,3.92,10.91,10.91,0,0,0,3.65,2.62,11.77,11.77,0,0,0,4.88,1,11.17,11.17,0,0,0,4.65-1,7.58,7.58,0,0,0,3.43-3.14h.1Zm-46.73,0h5.88V474.41a8.39,8.39,0,0,1,.29-2.26,5.27,5.27,0,0,1,1-1.91,5,5,0,0,1,1.67-1.32,5.55,5.55,0,0,1,2.47-.49,3.73,3.73,0,0,1,2.4.71,4.27,4.27,0,0,1,1.3,1.76,7.68,7.68,0,0,1,.51,2.26c.07.8.1,1.52.1,2.18v11.9h5.88V472.4a13.28,13.28,0,0,0-.44-3.48,7.69,7.69,0,0,0-1.47-2.94,7.48,7.48,0,0,0-2.67-2.05,9.07,9.07,0,0,0-4-.79,7.49,7.49,0,0,0-4.65,1.3,8.14,8.14,0,0,0-2.55,3.06h-.1v-3.77H577ZM565,478a5.32,5.32,0,0,1-1.44,3.94,6.08,6.08,0,0,1-4.48,1.45,6.7,6.7,0,0,1-1.47-.17,3.92,3.92,0,0,1-1.32-.57,3.34,3.34,0,0,1-1-.95,2.53,2.53,0,0,1-.36-1.4,2.36,2.36,0,0,1,.92-2,6.89,6.89,0,0,1,2.28-1.08,15.22,15.22,0,0,1,2.87-.47c1-.06,1.93-.09,2.74-.09H565Zm.35,9.21h5.29V473.72c0-.55,0-1.2,0-1.93a12.38,12.38,0,0,0-.32-2.28,9.34,9.34,0,0,0-.88-2.33,6.42,6.42,0,0,0-1.74-2,9.34,9.34,0,0,0-2.84-1.45,13.8,13.8,0,0,0-4.21-.56,16.86,16.86,0,0,0-5.42.88,11.48,11.48,0,0,0-4.58,2.89l3.09,3.09a8.85,8.85,0,0,1,2.79-1.79,9.13,9.13,0,0,1,3.48-.66,6.44,6.44,0,0,1,3.87,1.1,3.83,3.83,0,0,1,1.52,3.31v.63h-1.47c-1,0-2,0-3.14.08a28,28,0,0,0-3.3.34,18.07,18.07,0,0,0-3.16.81,9.35,9.35,0,0,0-2.67,1.44,6.76,6.76,0,0,0-1.84,2.26,7,7,0,0,0-.68,3.25,6.25,6.25,0,0,0,.73,3.09,6.74,6.74,0,0,0,1.94,2.2,8.3,8.3,0,0,0,2.74,1.32,11.23,11.23,0,0,0,3.16.45,10.21,10.21,0,0,0,4.31-.91,7.56,7.56,0,0,0,3.23-2.91h.15Zm-33.75,0h5.88V474.65a7.19,7.19,0,0,1,.22-1.47,5.75,5.75,0,0,1,.88-2,6.13,6.13,0,0,1,1.91-1.74,6.36,6.36,0,0,1,3.31-.76,8.27,8.27,0,0,1,1.39.13c.48.08,1,.19,1.45.32v-5.69a10.7,10.7,0,0,0-1.06-.24,5.19,5.19,0,0,0-1.05-.1,7.66,7.66,0,0,0-4.16,1.13,7.34,7.34,0,0,0-2.79,3.18h-.1v-3.72h-5.88ZM524.83,467H511.56v5.58h7.1v8.18a12.23,12.23,0,0,1-3.7,1.37,21,21,0,0,1-4.43.45,11.77,11.77,0,0,1-4.87-1,11.19,11.19,0,0,1-3.76-2.7,12.21,12.21,0,0,1-2.42-4.06,15,15,0,0,1-.85-5.15,13.63,13.63,0,0,1,.85-4.85,12.28,12.28,0,0,1,2.42-3.94,11.17,11.17,0,0,1,3.76-2.64,11.92,11.92,0,0,1,4.87-1,14.53,14.53,0,0,1,5,.88,11.45,11.45,0,0,1,4,2.5l4.55-4.6a15.11,15.11,0,0,0-6.21-3.4,28,28,0,0,0-7.45-1,20.16,20.16,0,0,0-7.37,1.3,16.69,16.69,0,0,0-5.78,3.69,17,17,0,0,0-3.8,5.81,20,20,0,0,0-1.37,7.57,19.11,19.11,0,0,0,1.37,7.39,16.57,16.57,0,0,0,9.58,9.39,20.37,20.37,0,0,0,7.37,1.29,29.92,29.92,0,0,0,14.35-3.43Zm-64.9,20.28h5.88V474.65a7.19,7.19,0,0,1,.22-1.47,5.94,5.94,0,0,1,.88-2,6.13,6.13,0,0,1,1.91-1.74,6.41,6.41,0,0,1,3.31-.76,8.58,8.58,0,0,1,1.4.13c.47.08,1,.19,1.44.32v-5.69q-.54-.15-1.05-.24a5.36,5.36,0,0,0-1.06-.1,7.61,7.61,0,0,0-4.16,1.13,7.43,7.43,0,0,0-2.8,3.18h-.09v-3.72h-5.88Zm-23.41-14.11a6.72,6.72,0,0,1,1.88-4.06,5.73,5.73,0,0,1,4.19-1.52A6.1,6.1,0,0,1,447,469a5.55,5.55,0,0,1,1.62,4.09Zm17.93,4.41v-1.61a17,17,0,0,0-.81-5.47,11.4,11.4,0,0,0-2.26-4A9.62,9.62,0,0,0,447.9,464a11.4,11.4,0,0,0-4.48-.86,14.05,14.05,0,0,0-5,.88,11.7,11.7,0,0,0-6.79,6.39,13.35,13.35,0,0,0,0,10.14,11.94,11.94,0,0,0,2.72,3.9,11.78,11.78,0,0,0,4.07,2.49,13.84,13.84,0,0,0,5,.89,13.52,13.52,0,0,0,5.34-1.08,11.85,11.85,0,0,0,4.61-3.63l-4.21-3.18a10.2,10.2,0,0,1-2.63,2.28,6.91,6.91,0,0,1-3.69.9,6.41,6.41,0,0,1-4.26-1.46,6,6,0,0,1-2.06-4.12Zm-39.58-8.82V479.5a18.5,18.5,0,0,0,.31,3.62,6.12,6.12,0,0,0,1.18,2.63,5,5,0,0,0,2.35,1.56,11.85,11.85,0,0,0,3.85.52,19.94,19.94,0,0,0,2.37-.17,7.54,7.54,0,0,0,2.28-.62v-5a3.56,3.56,0,0,1-1.47.57,9,9,0,0,1-1.71.17,2.87,2.87,0,0,1-2.62-1,5.09,5.09,0,0,1-.67-2.79V468.72h6.47v-5h-6.47v-6.81h-5.87v6.81H410v5ZM400.81,478a5.32,5.32,0,0,1-1.44,3.94,6.1,6.1,0,0,1-4.48,1.45,6.56,6.56,0,0,1-1.47-.17,3.88,3.88,0,0,1-1.33-.57,3.47,3.47,0,0,1-1-.95,2.53,2.53,0,0,1-.36-1.4,2.37,2.37,0,0,1,.93-2,6.74,6.74,0,0,1,2.27-1.08,15.22,15.22,0,0,1,2.87-.47c1-.06,1.93-.09,2.74-.09h1.23Zm.34,9.21h5.29V473.72c0-.55,0-1.2-.05-1.93a12.34,12.34,0,0,0-.31-2.28,9.79,9.79,0,0,0-.89-2.33,6.17,6.17,0,0,0-1.74-2,9.22,9.22,0,0,0-2.84-1.45,13.76,13.76,0,0,0-4.21-.56A16.76,16.76,0,0,0,391,464a11.34,11.34,0,0,0-4.58,2.89L389.5,470a8.74,8.74,0,0,1,2.79-1.79,9,9,0,0,1,3.47-.66,6.44,6.44,0,0,1,3.87,1.1,3.8,3.8,0,0,1,1.52,3.31v.63h-1.47c-1,0-2,0-3.13.08a28.34,28.34,0,0,0-3.31.34,18.54,18.54,0,0,0-3.16.81,9.49,9.49,0,0,0-2.67,1.44,6.74,6.74,0,0,0-1.83,2.26,7,7,0,0,0-.69,3.25,6.15,6.15,0,0,0,.74,3.09,6.71,6.71,0,0,0,1.93,2.2,8.45,8.45,0,0,0,2.75,1.32,11.17,11.17,0,0,0,3.16.45,10.16,10.16,0,0,0,4.3-.91A7.45,7.45,0,0,0,401,484h.15Zm-38.1-14.11a6.77,6.77,0,0,1,1.88-4.06,5.73,5.73,0,0,1,4.19-1.52,6.08,6.08,0,0,1,4.36,1.49,5.59,5.59,0,0,1,1.62,4.09ZM381,477.54v-1.61a17,17,0,0,0-.81-5.47,11.38,11.38,0,0,0-2.25-4,9.66,9.66,0,0,0-3.47-2.47,11.52,11.52,0,0,0-4.49-.86,14,14,0,0,0-5,.88,11.7,11.7,0,0,0-6.79,6.39,13.35,13.35,0,0,0,0,10.14,11.94,11.94,0,0,0,2.72,3.9,11.78,11.78,0,0,0,4.07,2.49,13.8,13.8,0,0,0,5,.89,13.52,13.52,0,0,0,5.34-1.08,11.82,11.82,0,0,0,4.6-3.63l-4.21-3.18a10,10,0,0,1-2.62,2.28,7,7,0,0,1-3.7.9,6.44,6.44,0,0,1-4.26-1.46,6,6,0,0,1-2.05-4.12Zm-40.8,9.7h5.88V474.65a7.19,7.19,0,0,1,.22-1.47,5.75,5.75,0,0,1,.88-2,6.13,6.13,0,0,1,1.91-1.74,6.36,6.36,0,0,1,3.31-.76,8.27,8.27,0,0,1,1.39.13c.48.08,1,.19,1.45.32v-5.69a10.7,10.7,0,0,0-1.06-.24,5.19,5.19,0,0,0-1-.1,7.66,7.66,0,0,0-4.16,1.13,7.34,7.34,0,0,0-2.79,3.18h-.1v-3.72h-5.88ZM333.41,467H320.14v5.58h7.1v8.18a12.23,12.23,0,0,1-3.7,1.37,21,21,0,0,1-4.43.45,11.77,11.77,0,0,1-4.87-1,11.05,11.05,0,0,1-3.75-2.7,12.07,12.07,0,0,1-2.43-4.06,15,15,0,0,1-.85-5.15,13.63,13.63,0,0,1,.85-4.85,12.13,12.13,0,0,1,2.43-3.94,11,11,0,0,1,3.75-2.64,11.92,11.92,0,0,1,4.87-1,14.53,14.53,0,0,1,5,.88,11.45,11.45,0,0,1,4,2.5l4.55-4.6a15.11,15.11,0,0,0-6.21-3.4,28,28,0,0,0-7.45-1,20.16,20.16,0,0,0-7.37,1.3,16.69,16.69,0,0,0-5.78,3.69,17,17,0,0,0-3.8,5.81,20,20,0,0,0-1.37,7.57,19.11,19.11,0,0,0,1.37,7.39,16.57,16.57,0,0,0,9.58,9.39,20.37,20.37,0,0,0,7.37,1.29,29.92,29.92,0,0,0,14.35-3.43Z"/><rect class="cls-1" x="195.1" y="422.88" width="804.89" height="3.34"/></svg>